<?xml version="1.0" encoding="UTF-8" standalone="no"?>
<!-- Created with Inkscape (http://www.inkscape.org/) -->

<svg
   width="11.90625mm"
   height="11.941398mm"
   viewBox="0 0 11.90625 11.941398"
   version="1.1"
   id="svg1"
   xml:space="preserve"
   xmlns="http://www.w3.org/2000/svg"
   xmlns:svg="http://www.w3.org/2000/svg"><defs
     id="defs1" /><g
     id="layer1"
     transform="translate(-251.76031,-94.949425)"><rect
       style="fill:#ffffff;fill-opacity:1;stroke-width:0.264583"
       id="rect1"
       width="6.470624"
       height="6.8750381"
       x="254.78082"
       y="97.868195" /><path
       style="fill:#10b981;fill-opacity:1"
       d="m 253.81375,106.30998 c -1.57236,-0.83014 -2.05344,-2.07496 -2.05344,-5.31336 0,-4.867587 1.16126,-6.047197 5.95313,-6.047197 4.79186,0 5.95312,1.17961 5.95312,6.047197 0,3.2864 -0.47834,4.49407 -2.10968,5.32632 -1.49621,0.76331 -6.28801,0.75529 -7.74313,-0.013 z m 2.97784,-4.54754 0.004,-1.12448 0.72341,1.12258 c 0.49708,0.77135 0.90967,1.12317 1.31873,1.12447 0.56084,0.002 0.59531,-0.10532 0.59531,-1.85017 0,-1.656487 -0.0542,-1.852087 -0.5132,-1.852087 -0.40203,0 -0.53098,0.21491 -0.59531,0.992187 l -0.0821,0.99219 -0.61689,-0.99219 c -0.43707,-0.702967 -0.80341,-0.992187 -1.25677,-0.992187 -0.61584,0 -0.63988,0.0696 -0.63988,1.852087 0,1.67569 0.0504,1.85208 0.52917,1.85208 0.4455,0 0.52983,-0.17779 0.53336,-1.12448 z"
       id="path1" /></g></svg>
